<svg xmlns="http://www.w3.org/2000/svg" viewBox="0 0 392.7 317.8"><defs><style>.ff4449dc-9a77-4e60-afd3-f3d1ed5f0668{fill:#0f5394;}.b2a5a593-50dc-4ad7-a218-2c7084ccb27f{fill:#fc9d01;}</style></defs><title>ROAX VIVIENDAS</title><g id="fcb72d34-3ad5-4bad-bbd4-6add96eb7cb6" data-name="VIVIENDAS"><polygon class="ff4449dc-9a77-4e60-afd3-f3d1ed5f0668" points="0 175.5 23.5 197.4 47.3 173.2 47.3 265.9 79.5 265.9 78.1 142.8 176 44.9 268.7 138.4 290.8 116.7 260.5 86.8 260.2 30.8 229.4 30.8 229.6 53.9 175.5 0 0 175.5"/><path class="b2a5a593-50dc-4ad7-a218-2c7084ccb27f" d="M119.3,222.6l6.6-1c2.3-.3,4.7-.6,7-.7l6.9-.4,6.1-.2a68.5,68.5,0,0,1,12.8,1.2,33.9,33.9,0,0,1,11.3,4.2,21.2,21.2,0,0,1,8,8c2,3.4,3,7.7,3,12.8,0,7.7-1.8,13.9-5.3,18.7a27.7,27.7,0,0,1-14.2,9.9l6.5,4.2,21.3,35.5H168.2l-21.1-36.5-9.6-1.7v38.2H119.3Zm27.9,14h-5.5a30.2,30.2,0,0,0-4.2.5v27h7.7c5.1,0,9.1-1.1,12.1-3.4s4.6-6.2,4.6-11.5-1.3-7.1-3.8-9.3S152,236.6,147.2,236.6Z" transform="translate(-32.1 -65.6)"/><path class="b2a5a593-50dc-4ad7-a218-2c7084ccb27f" d="M189.8,268.2c0-15.5,3.4-27.4,10.2-35.8s16.6-12.6,29.3-12.6a40.9,40.9,0,0,1,17.4,3.5,32.2,32.2,0,0,1,12.4,9.8,43.5,43.5,0,0,1,7.3,15.3,75.7,75.7,0,0,1,2.4,19.8c0,15.5-3.4,27.5-10.3,35.9s-16.6,12.5-29.2,12.5a41.9,41.9,0,0,1-17.6-3.4,32.9,32.9,0,0,1-12.3-9.9,43.4,43.4,0,0,1-7.2-15.3A75.7,75.7,0,0,1,189.8,268.2Zm19.1,0a66.1,66.1,0,0,0,1.2,13,36,36,0,0,0,3.7,10.2,18.2,18.2,0,0,0,6.3,6.6,17,17,0,0,0,9.2,2.4c6.5,0,11.5-2.5,15-7.6s5.3-13.2,5.3-24.6a62.9,62.9,0,0,0-1.1-12.6,34.7,34.7,0,0,0-3.5-10.3,18,18,0,0,0-6.3-6.8,16.5,16.5,0,0,0-9.4-2.5q-9.7,0-15,7.8C210.7,249,208.9,257.1,208.9,268.2Z" transform="translate(-32.1 -65.6)"/><path class="b2a5a593-50dc-4ad7-a218-2c7084ccb27f" d="M321.7,294.1H293.1l-7,20.7H267.9L301.4,221h13.4l33.5,93.8H329.2Zm-23.9-14.6h19.9l-6.9-20.7L308,244.1h-.6l-2.8,14.8Z" transform="translate(-32.1 -65.6)"/><path class="b2a5a593-50dc-4ad7-a218-2c7084ccb27f" d="M372,267.4l-25.9-45.7H368l14.4,26.8,3.2,9.5,3-9.5,15.1-26.8h19.8l-26.9,44.8,28.2,48.3H403.1L386.8,286l-3.6-9.8-3.5,9.8-16.5,28.8H343.4Z" transform="translate(-32.1 -65.6)"/><path class="ff4449dc-9a77-4e60-afd3-f3d1ed5f0668" d="M97.7,365.2l1.1,7.2h.3l1.2-7.2,8-24.6H117l-15.6,42.3H95.5L79.8,340.6h9.5Z" transform="translate(-32.1 -65.6)"/><path class="ff4449dc-9a77-4e60-afd3-f3d1ed5f0668" d="M117.9,340.6h8.2v42h-8.2Z" transform="translate(-32.1 -65.6)"/><path class="ff4449dc-9a77-4e60-afd3-f3d1ed5f0668" d="M144.9,365.2l1.1,7.2h.3l1.2-7.2,8.1-24.6h8.6l-15.6,42.3h-5.9L127,340.6h9.5Z" transform="translate(-32.1 -65.6)"/><path class="ff4449dc-9a77-4e60-afd3-f3d1ed5f0668" d="M165.1,340.6h8.2v42h-8.2Z" transform="translate(-32.1 -65.6)"/><path class="ff4449dc-9a77-4e60-afd3-f3d1ed5f0668" d="M178.4,340.6h24.9v7.3H186.6v9.8h15.2V365H186.6v10.3h17v7.3H178.4Z" transform="translate(-32.1 -65.6)"/><path class="ff4449dc-9a77-4e60-afd3-f3d1ed5f0668" d="M217.1,360.7l-3.3-6.6h-.3l1,6.6v21.9h-7.8V340.3h6l15.9,22.4,3.2,6.4h.3l-1-6.4V340.6h7.8v42.3h-6Z" transform="translate(-32.1 -65.6)"/><path class="ff4449dc-9a77-4e60-afd3-f3d1ed5f0668" d="M243.1,340.6l2.8-.3,3.3-.2h6.1a27.3,27.3,0,0,1,9.6,1.5,16.6,16.6,0,0,1,6.4,4.4,18.8,18.8,0,0,1,3.6,6.7,29.4,29.4,0,0,1,1.1,8.6,31.2,31.2,0,0,1-1,8.2,21.6,21.6,0,0,1-3.6,7.1,19.1,19.1,0,0,1-6.7,4.9,25,25,0,0,1-10.1,1.8H252l-3.3-.2h-3.3l-2.3-.3Zm12.9,6.7h-4.7v28.2h4.2a12.5,12.5,0,0,0,5.8-1.2,9.8,9.8,0,0,0,3.7-3.3,13.3,13.3,0,0,0,1.9-4.7,33.1,33.1,0,0,0,.5-5.5,27.2,27.2,0,0,0-.5-4.9,12.8,12.8,0,0,0-1.7-4.5,10.2,10.2,0,0,0-3.6-3.2A10.3,10.3,0,0,0,256,347.3Z" transform="translate(-32.1 -65.6)"/><path class="ff4449dc-9a77-4e60-afd3-f3d1ed5f0668" d="M297.9,373.3H285l-3.1,9.3h-8.3l15.2-42.3h6l15.1,42.3h-8.6Zm-10.8-6.6h9l-3.1-9.4-1.2-6.6h-.3l-1.3,6.7Z" transform="translate(-32.1 -65.6)"/><path class="ff4449dc-9a77-4e60-afd3-f3d1ed5f0668" d="M328.7,371.3a3.7,3.7,0,0,0-1.5-3.1,16.2,16.2,0,0,0-3.5-2.2l-4.6-2a22.8,22.8,0,0,1-4.6-2.6,13.1,13.1,0,0,1-3.6-3.8,11.7,11.7,0,0,1-1.4-5.9,14.3,14.3,0,0,1,1-5.3,10.6,10.6,0,0,1,2.9-3.7,11.8,11.8,0,0,1,4.5-2.2,20.8,20.8,0,0,1,5.8-.8,38.4,38.4,0,0,1,6.9.7,17.3,17.3,0,0,1,5.3,1.8l-2.6,6.9a11.3,11.3,0,0,0-3.9-1.5,21.2,21.2,0,0,0-5.7-.7,7.7,7.7,0,0,0-4.4,1.1,3.6,3.6,0,0,0-1.6,3.1,3.9,3.9,0,0,0,1.4,3,20.2,20.2,0,0,0,3.6,2.2l4.6,2.1a22.8,22.8,0,0,1,4.6,2.6,14.5,14.5,0,0,1,3.6,3.8,10.8,10.8,0,0,1,1.4,5.6,14.6,14.6,0,0,1-1.1,5.8,10.5,10.5,0,0,1-3.2,4,12.1,12.1,0,0,1-4.8,2.4,20.9,20.9,0,0,1-6.3.8,37,37,0,0,1-7.9-.8,21.6,21.6,0,0,1-5-1.7l2.6-7,1.7.8,2.4.7a12.7,12.7,0,0,0,2.8.6,14.5,14.5,0,0,0,3,.3,10.8,10.8,0,0,0,5.6-1.2A4.3,4.3,0,0,0,328.7,371.3Z" transform="translate(-32.1 -65.6)"/></g></svg>